# xmcd CD database file generated by Grip 3.0.5
# 
# Track frame offsets:
#       150
#       9892
#       22215
#       33067
#       43942
#       56367
#       71055
#       85157
#       96235
#       105965
#       116220
#       126912
#       136810
#       148197
#       156050
# 
# Disc length: 2288 seconds
# 
# Revision: 3
# Processed by: cddbd v1.5.1PL0 Copyright (c) Steve Scherf et al.
# Submitted via: Grip 3.0.5
# 
DISCID=c708ee0f
DTITLE=Big Boy Bloater And His Southside Stompers - Jumpin' Rhythm and Blues
DYEAR=1998
DGENRE=Blues
TTITLE0=Reeling and Rocking
TTITLE1=You're Cheap
TTITLE2=Hook, Line and Sinker
TTITLE3=Refrigerator Baby
TTITLE4=Chicken and The Hawk
TTITLE5=Roberta
TTITLE6=Take It Back Baby
TTITLE7=It Aint The Meat It's The Motion
TTITLE8=Down The Road
TTITLE9=Sapphire
TTITLE10=Get Out Of Here
TTITLE11=My Man
TTITLE12=Yum Yum
TTITLE13=This Little Girl's Gone Rockin'
TTITLE14=Let Me In Honey
EXTD=
EXTT0=
EXTT1=
EXTT2=
EXTT3=
EXTT4=
EXTT5=
EXTT6=
EXTT7=
EXTT8=
EXTT9=
EXTT10=
EXTT11=
EXTT12=
EXTT13=
EXTT14=
PLAYORDER=
